<svg xmlns="http://www.w3.org/2000/svg" width="60" height="60" viewBox="0 0 60 60" fill="none">
  <g clip-path="url(#clip0_164_27)">
    <path fill-rule="evenodd" clip-rule="evenodd" d="M30 0C46.56 0 60 13.44 60 30C60 46.56 46.56 60 30 60C13.44 60 0 46.56 0 30C0 13.44 13.44 0 30 0ZM45.02 18.04L15.9 17.96L30.46 29.52L45.02 18.04ZM27.02 32.74L14.3 22.74V41.74H45.76V23.14L33.96 32.78C29.96 36.04 31.16 35.98 27.02 32.74ZM14.46 14.32H45.84C48.38 14.32 50.44 16.4 50.44 18.92V40.92C50.44 43.46 48.36 45.52 45.84 45.52H14.46C11.92 45.52 9.86 43.44 9.86 40.92V18.92C9.86 16.38 11.94 14.32 14.46 14.32Z" fill="#E38445"/>
  </g>
  <defs>
    <clipPath id="clip0_164_27">
      <rect width="60" height="60" fill="white"/>
    </clipPath>
  </defs>
</svg>