<svg xmlns="http://www.w3.org/2000/svg" width="13" height="14" viewBox="0 0 13 14" fill="none">
  <path d="M3.40032 13.4288C3.13403 13.4288 2.87798 13.3622 2.64242 13.2196C2.18153 12.9439 1.93573 12.4686 1.99719 11.9648L2.20201 10.5009C0.819354 9.45522 0 7.90573 0 6.28019C0 4.42651 1.04469 2.6964 2.79606 1.66024C3.85097 1.02334 5.10048 0.681152 6.4012 0.681152C9.9347 0.681152 12.8024 3.19072 12.8024 6.28019C12.8024 7.53499 12.3108 8.77078 11.4095 9.74991C10.2522 11.0522 8.52128 11.8127 6.61628 11.8698L4.11725 13.2481C3.89193 13.3717 3.64613 13.4288 3.40032 13.4288ZM6.39096 2.10702C5.38725 2.10702 4.4245 2.36369 3.61539 2.858C2.30442 3.6375 1.52605 4.91132 1.52605 6.28019C1.52605 7.60153 2.22251 8.80881 3.45154 9.5883C3.6871 9.7404 3.81 9.99706 3.77927 10.2632L3.55395 11.8888L6.00177 10.5389C6.12467 10.4724 6.25782 10.4343 6.39096 10.4343C7.89653 10.4343 9.32018 9.83546 10.2215 8.81831C10.8974 8.07684 11.2559 7.20228 11.2559 6.27068C11.2559 3.97972 9.07438 2.10702 6.39096 2.10702Z" fill="#292D32"/>
</svg>